<?xml version="1.0" encoding="UTF-8" standalone="no"?>
<svg width="765px" height="765px" viewBox="0 0 765 765" version="1.1" xmlns="http://www.w3.org/2000/svg" xmlns:xlink="http://www.w3.org/1999/xlink" xmlns:sketch="http://www.bohemiancoding.com/sketch/ns">
    <!-- Generator: Sketch 3.2.2 (9983) - http://www.bohemiancoding.com/sketch -->
    <title>hellolabs-logo</title>
    <desc>Created with Sketch.</desc>
    <defs></defs>
    <g id="Page-1" stroke="none" stroke-width="1" fill="none" fill-rule="evenodd" sketch:type="MSPage">
        <path d="M382.5,0 C171.3,0 0,171.2 0,382.5 C0,593.8 171.2,765 382.5,765 C593.8,765 765,593.7 765,382.5 C765,171.3 593.7,0 382.5,0 L382.5,0 Z M398.5,592.1 C398.2,592.1 397.9,592.4 397.9,592.7 L397.9,614 C397.9,614.3 398.2,614.6 398.5,614.6 C400.9,614.6 405.9,614.4 405.9,603.3 C405.9,592.3 400.9,592 398.5,592.1 L398.5,592.1 Z M398.5,562.7 C398.2,562.7 397.9,563 397.9,563.3 L397.9,581.6 C397.9,581.9 398.2,582.2 398.5,582.2 C400.9,582.2 405.8,581.6 405.8,572.4 C405.9,563.3 400.9,562.7 398.5,562.7 L398.5,562.7 Z M364.2,573.9 L363.6,573.9 L363.3,575.8 L360.3,598.2 C360.3,598.6 360.5,598.9 360.9,598.9 L366.9,598.9 C367.3,598.9 367.5,598.6 367.5,598.2 L364.5,575.8 L364.2,573.9 L364.2,573.9 Z M570.2,455.6 L570.2,455.9 C570.5,457.5 570.9,459.1 571.4,460.7 C571.5,461.1 571.7,461.6 571.8,462 C571.9,462.2 572,462.5 572.1,462.6 C572.7,463.8 573.4,464.9 574.1,466 C574.2,466.1 574.3,466.3 574.4,466.4 C575,467 575.5,467.6 576.1,468.2 C576.5,468.6 576.9,468.9 577.3,469.3 C577.4,469.4 577.5,469.5 577.7,469.6 C579.4,470.7 581.1,471.7 582.9,472.5 C582.9,472.5 583,472.5 583,472.6 C583.9,472.9 584.8,473.3 585.7,473.5 C587.3,474 588.8,474.4 590.4,474.7 L590.7,474.7 C591.5,474.7 592.3,474.8 593.1,474.8 C593.6,474.8 594.1,474.8 594.6,474.7 C594.7,474.7 594.8,474.7 594.9,474.6 C596.1,474.3 597.4,474 598.5,473.6 C598.6,473.6 598.7,473.5 598.8,473.5 C599.5,473.1 600.2,472.8 600.8,472.4 C601.5,472 602.1,471.6 602.8,471.1 C602.9,471.1 602.9,471 603,471 C605.5,468.9 607.8,466.6 609.9,464 L610,463.9 C610.5,463.1 611.1,462.4 611.6,461.6 C612.7,460 613.7,458.4 614.7,456.7 C616.8,453.1 618.7,449.3 620.4,445.4 C620.5,445.1 620.7,444.8 620.8,444.4 C621.2,443.4 621.6,442.4 622,441.3 C622.8,439.2 623.5,437.1 624.2,435 C627.2,425.8 629.5,416.4 631.3,406.9 C631.8,404.4 632.2,401.9 632.6,399.4 C632.7,398.6 632.8,397.8 633,397 C633.1,396.4 633.2,395.8 633.2,395.5 C633.8,390.8 634.2,386 634.5,381.2 C635,373.1 635.1,365 634.6,356.9 C629.5,353.5 624.9,349.3 621.2,344.5 C621,344.8 620.8,345 620.5,345.3 C619.5,346.6 618.5,347.8 617.5,349.1 C617.4,349.2 617.3,349.3 617.2,349.4 C616.7,350.1 616.1,350.8 615.6,351.6 C604.9,366 595.2,381.2 586.9,397.1 C584.7,401.3 582.6,405.6 580.6,410 C580.1,411.1 579.6,412.3 579.1,413.4 C579,413.6 578.9,413.8 578.8,414 C578,416.1 577.2,418.1 576.4,420.2 C574.9,424.4 573.5,428.6 572.4,433 C571.8,435.1 571.3,437.3 570.9,439.5 C570.7,440.5 570.5,441.4 570.4,442.4 C570.4,442.6 570.3,442.8 570.3,443 C569.9,446.5 569.7,450.1 569.9,453.6 C570.1,454.3 570.2,455 570.2,455.6 L570.2,455.6 Z M309.7,410.2 C310.5,409.6 311.4,408.9 312.2,408.2 C314,406.8 315.8,405.3 317.6,403.8 C321.5,400.6 325.3,397.4 329,394 C336.5,387.2 343.8,380.1 350.4,372.3 C351.3,371.2 352.2,370.2 353,369.1 C353.3,368.8 353.8,368.1 354.2,367.5 C355.3,366 356.4,364.6 357.4,363.1 C359.9,359.4 362.3,355.5 364.3,351.5 C364.6,350.9 364.8,350.4 365.1,349.8 C365.3,349.3 365.6,348.6 365.7,348.2 C366.4,346.4 366.9,344.5 367.4,342.6 C367.6,341.7 367.8,340.7 368,339.7 C368.1,337.9 368.2,336.1 368.1,334.3 L368.1,333.7 C368,333 367.8,332.4 367.7,331.7 C367.5,330.8 367.2,330 366.9,329.1 C366.9,329 366.8,328.9 366.8,328.8 C366.1,327.4 365.4,326.1 364.5,324.8 C364.2,324.5 363.9,324.2 363.6,323.9 C363.5,323.8 363.3,323.7 363.2,323.5 C363.2,323.5 363.1,323.5 363.1,323.4 C362.9,323.3 362.8,323.2 362.6,323.1 C362.4,323 362.2,323 362,322.9 L360.6,322.9 C360.1,323 359.5,323.1 359,323.3 C358.3,323.5 357.1,324 356.3,324.3 C354.2,325.4 352.2,326.6 350.2,327.9 C349.5,328.4 348.9,328.8 348.2,329.3 C346.9,330.4 345.6,331.5 344.3,332.6 C341.4,335.3 338.6,338.1 335.9,341 C334.4,342.6 333,344.3 331.6,346 C330.9,346.8 330.3,347.6 329.6,348.4 C329.5,348.6 329.3,348.7 329.2,348.9 C326.5,352.4 323.9,356.1 321.5,359.8 C316.2,367.8 311.5,376.2 307.3,384.9 C306.2,387.2 305.1,389.5 304.1,391.8 C303.8,392.5 303.5,393.2 303.2,393.9 C303,394.5 302.7,395.2 302.5,395.6 C300.7,400 299.1,404.5 297.6,409.1 C296.3,413.1 295.2,417.2 294.2,421.3 C299.1,417.8 303.9,414.3 308.7,410.7 C309.1,410.6 309.4,410.4 309.7,410.2 L309.7,410.2 Z M697.4,521.4 C673.1,576.4 633.9,624 585.5,659.5 C536.1,695.7 477.2,717.6 416.2,723.5 C353.5,729.5 289.7,717.9 233.1,690.3 C178.6,663.8 131.7,622.5 98.1,572.1 C81.1,546.7 67.6,519 58,490.1 C50.7,468.1 46.5,445.7 42.9,422.9 C42.6,421 42.6,419.1 42.9,417.2 C42.1,410.8 46.1,403.7 52.7,402.4 C52.9,402.4 53.1,402.3 53.2,402.3 C76,397.6 98.8,392.8 121.6,388.1 C123.9,387.6 126.2,387.2 128.4,386.7 C134.3,364.3 140.9,342 147.7,320 C156.7,291 166.2,262.2 176.8,233.8 C179.4,226.9 185.9,222.2 193.5,224.3 C200.2,226.1 205.6,234.1 203,241 C203,241 203,241.1 202.9,241.1 C191.7,271.2 181.6,301.7 172.2,332.4 C167.3,348.3 162.6,364.4 158.2,380.5 C178.5,376.3 198.8,372.1 219.1,367.8 C228.5,334.7 239.1,301.8 251.9,270 C254.7,263.1 260.8,258.4 268.6,260.5 C275.1,262.3 280.8,270.3 278.1,277.2 C273.2,289.4 268.8,301.9 264.5,314.4 C259.1,330 254,345.8 249.3,361.6 C264.3,358.5 279.3,355.4 294.3,352.2 C295.8,349.8 297.3,347.5 298.8,345.2 C308.9,330.1 320.8,315.5 335.9,305.1 C347.6,297.1 364.8,291.8 377.5,301 C393.7,312.7 398.3,334.3 392.6,352.8 C386.5,372.5 372.6,389.3 358.2,403.7 C344,417.9 328.2,430.4 311.9,442.1 C305.6,446.6 299.2,451.1 292.7,455.2 C293,456.3 293.3,457.4 293.6,458.5 C293.8,459.2 294,459.8 294.3,460.5 C295,462 295.8,463.5 296.8,464.9 C297,465.2 297.2,465.6 297.5,465.9 C297.6,466.1 297.8,466.2 297.9,466.3 C299.1,467.6 300.3,468.9 301.7,470 C301.8,470.1 301.9,470.2 302.1,470.3 C302.3,470.4 302.5,470.6 302.7,470.7 C303.7,471.4 304.8,472.1 305.9,472.8 C307.1,473.5 308.4,474.2 309.6,474.8 C309.8,474.9 310,475 310.2,475 C312.3,475.7 314.4,476.3 316.6,476.7 C316.9,476.7 317.2,476.8 317.5,476.8 C318.6,476.9 319.7,476.9 320.8,476.9 C321.9,476.9 323,476.8 324,476.7 L324.4,476.7 C326.7,476.3 328.9,475.8 331.1,475.1 C332.2,474.8 333.2,474.4 334.3,474 C334.6,473.9 334.8,473.8 335.1,473.7 C339.4,471.7 343.5,469.4 347.4,466.8 C348.6,466 349.7,465.2 350.8,464.4 C351.2,464.1 351.9,463.6 352.5,463.1 C354,461.9 355.5,460.6 357,459.4 C364.3,453 370.9,446 377.2,438.6 C378.6,436.9 380.1,435.1 381.5,433.4 C381.9,432.9 382.3,432.3 382.7,431.8 C382.9,431.6 383,431.4 383.1,431.2 C400.9,401.2 434.9,328.9 455.1,290.2 C466.9,267.6 478.9,245.2 491.3,222.9 C494.9,216.4 503.6,214.3 509.9,218 C516.4,221.8 518.4,230.1 514.8,236.6 C512,241.6 509.3,246.6 506.5,251.6 C487.7,286 469.5,320.6 452.3,355.8 C447.5,365.7 442.7,375.6 438.1,385.6 C436,390.3 433.8,395 431.8,399.7 C430.9,401.8 430,403.9 429.1,406 C428.9,406.4 428.7,406.9 428.6,407.1 C428.2,408.1 427.8,409.1 427.3,410.2 C424.3,417.7 421.4,425.2 419,432.9 C418.1,435.9 417.2,438.9 416.6,441.9 C416.2,443.7 415.9,445.6 415.6,447.4 C415.6,447.4 415.6,447.4 415.6,447.5 C415.6,447.6 415.6,447.8 415.5,448 C415.4,449 415.3,450 415.2,451 C415,452.9 414.9,454.7 414.9,456.6 C414.8,459.5 414.9,462.4 415.1,465.3 C415.2,466 415.5,467.7 415.6,468.3 C415.9,469.5 416.2,470.7 416.6,471.9 C416.7,472.1 416.8,472.4 416.9,472.7 C416.9,472.7 416.9,472.8 417,472.8 C417.4,473.5 417.8,474.2 418.3,474.9 C418.4,475 418.5,475.1 418.6,475.2 C418.8,475.4 419.1,475.6 419.3,475.9 C419.5,476 419.6,476.1 419.8,476.2 C420,476.2 420.1,476.3 420.3,476.3 C420.5,476.3 420.6,476.4 420.8,476.4 L422.2,476.4 L422.7,476.4 C423.5,476.2 424.2,476.1 424.9,475.8 C425.4,475.7 425.8,475.5 426.3,475.4 C426.8,475.2 427.4,474.9 427.7,474.7 C429,474 430.3,473.2 431.5,472.4 C432.1,472 434.2,470.4 434.3,470.3 C436.2,468.7 438.1,467.1 439.9,465.3 C444.7,460.7 449.2,455.8 453.4,450.6 C454.5,449.3 455.6,447.9 456.7,446.6 C457.1,446.2 457.4,445.7 457.8,445.3 C466.2,432.7 473.3,415.9 476.2,408.4 C492.1,367.8 512.2,328.7 532.4,290.1 C544.2,267.5 556.2,245.1 568.6,222.8 C572.2,216.3 580.9,214.2 587.2,217.9 C593.7,221.7 595.7,230 592.1,236.5 C589.4,241.4 586.7,246.3 584,251.2 C565.3,285.5 547.1,320 529.9,355.1 C525,365 520.3,375 515.7,385 C513.5,389.7 511.4,394.4 509.4,399.1 C508.4,401.3 507.5,403.5 506.5,405.8 C506.4,406.1 506.3,406.3 506.2,406.6 C505.8,407.6 505.3,408.7 504.9,409.7 C501.8,417.2 498.9,424.8 496.5,432.5 C495.6,435.5 494.7,438.5 494,441.6 C493.6,443.2 493.3,444.8 493.1,446.4 C493,446.8 492.8,448.4 492.8,448.6 C492.7,449.1 492.7,449.5 492.7,450 C492.5,451.9 492.4,453.8 492.3,455.7 C492.2,459.1 492.2,462.5 492.6,465.9 C492.7,466.5 492.8,467.1 492.9,467.7 C493.2,468.9 493.5,470.2 493.9,471.4 C494,471.8 494.2,472.2 494.3,472.5 C494.7,473.3 495.2,474.2 495.7,475 L495.7,475 C495.9,475.3 496.2,475.5 496.4,475.7 C496.7,475.9 497,476.1 497.3,476.2 L497.3,476.2 C497.6,476.3 498,476.4 498.4,476.4 L499.2,476.4 L500.1,476.4 C500.7,476.3 501.3,476.1 501.9,476 C502.6,475.8 503.3,475.6 504,475.3 C504.2,475.2 504.5,475.1 504.7,475 C506.8,473.9 508.7,472.7 510.6,471.3 C511.1,470.9 512.8,469.5 513.3,469 C514.5,468 515.6,466.9 516.8,465.8 C521.5,461.2 525.9,456.2 530.1,451 C530.6,450.4 531.1,449.7 531.6,449.1 C532.4,448 533.2,446.9 534,445.9 C539.1,439.6 557.8,394.4 566.9,377.8 C575.3,362.5 584.9,347.8 595.6,334 C599.8,328.5 604.1,323 608.9,317.9 C612.1,314.6 615.8,310.7 620.4,309.4 C626.8,304.3 636,304.8 642.8,309.3 C649.8,314 653.9,319.9 657,327.6 C658.5,331.3 659.4,335.2 660.2,339.1 C663.5,340.1 666.8,341 670.2,341.5 C670.9,341.6 673.1,341.8 673.8,341.9 C675.2,342 676.6,342.1 678,342.1 C681,342.2 684,342.2 686.9,342 C688.8,341.9 690.6,341.8 692.5,341.6 C693.3,341.5 694.1,341.4 694.9,341.3 C695.6,341.2 696.4,341.1 697.1,340.9 C697,340.4 696.9,339.4 696.9,339.1 C696.7,337.6 696.5,336.1 696.2,334.7 C695.2,328.4 694.1,322.2 692.7,316 C690,303.7 686.7,291.6 682.7,279.7 C680.3,272.8 677.8,265.9 674.9,259.1 C674.8,258.8 674.6,258.4 674.5,258.1 C674.1,257.3 673.8,256.5 673.4,255.7 C672.7,254.1 672,252.5 671.2,250.9 C669.7,247.7 668.2,244.5 666.6,241.4 C660,228.3 652.6,215.7 644.4,203.6 C642.3,200.5 640.1,197.4 637.9,194.3 C636.9,192.9 635.8,191.5 634.8,190.1 C634.4,189.6 634.1,189.1 633.7,188.6 C633.5,188.3 633.3,188.1 633.2,188 C628.7,182.3 624,176.7 619.2,171.3 C609.5,160.5 599.1,150.3 588.1,140.8 C585.2,138.3 582.3,135.9 579.4,133.6 C578.9,133.2 576.6,131.4 576.2,131.1 C575.2,130.3 574.2,129.6 573.1,128.8 C567.3,124.5 561.3,120.3 555.2,116.3 C542.9,108.4 530.1,101.2 516.9,95 C513.4,93.4 510,91.8 506.4,90.3 C506.3,90.3 506.2,90.2 506.1,90.2 C505.4,89.9 504.6,89.6 503.9,89.3 C502.3,88.6 500.6,88 499,87.3 C492.1,84.6 485.1,82.2 478,80 C463.7,75.5 449,72 434.2,69.6 C432.1,69.3 430,68.9 427.9,68.6 C427.2,68.5 426.6,68.4 425.9,68.3 C425.6,68.3 425.4,68.2 425.2,68.2 C421.6,67.7 417.9,67.3 414.2,67 C406.5,66.3 398.8,65.8 391.1,65.7 C375.6,65.4 360.1,66.1 344.7,67.9 C343.5,68 342.3,68.2 341.1,68.3 L341.1,68.3 C339.3,68.6 337.5,68.8 335.7,69.1 C332.1,69.7 328.5,70.3 325,71 C317.6,72.4 310.3,74.1 303,76 C288.7,79.8 274.6,84.5 260.9,90.2 L260.9,90.2 C260.6,90.3 260.4,90.4 260.1,90.5 C259.3,90.9 258.5,91.2 257.7,91.6 C256.1,92.3 254.5,93 252.9,93.8 C249.7,95.3 246.5,96.8 243.4,98.4 C236.9,101.7 230.4,105.1 224.1,108.9 C217.8,112.6 211.6,116.5 205.6,120.6 C202.5,122.7 199.4,124.9 196.3,127.1 C194.9,128.1 193.5,129.2 192.1,130.2 C191.6,130.6 191,131 190.5,131.4 C190.3,131.5 190.1,131.7 190,131.8 C178.6,140.8 167.7,150.4 157.6,160.8 C152.5,166 147.6,171.3 142.9,176.8 C140.4,179.7 138,182.6 135.7,185.5 C135.3,186 133.5,188.3 133.2,188.7 C132.4,189.7 131.7,190.7 130.9,191.7 C122.2,203.4 114.2,215.6 107.2,228.4 C103.6,234.8 100.3,241.3 97.2,247.9 C95.6,251.4 94,254.8 92.5,258.3 C92.4,258.5 92.3,258.7 92.2,259 C92,259.6 91.7,260.2 91.5,260.8 C90.8,262.4 90.2,264.1 89.5,265.7 C84.1,279.6 79.6,293.8 76.2,308.2 C74.5,315.5 72.9,322.9 71.7,330.3 C71.4,332.4 71,334.5 70.7,336.6 C70.6,337.5 70.5,338.3 70.3,339.2 L70.3,339.4 C69.8,343 69.4,346.7 69.1,350.3 C68.4,357.7 63.5,363.9 55.5,363.9 C48.6,363.9 41.2,357.7 41.9,350.3 C45.1,317.1 52.6,284.4 65.2,253.5 C88,197.9 124.5,148.2 172.2,111.3 C196.9,92.2 223.4,76.6 252.1,64.5 C280.6,52.5 310.5,44.9 341.2,41 C403.4,33.1 467.1,42.9 524.2,68.5 C579.1,93.1 626.7,132.5 662,181.2 C698.1,231 719.7,289.9 725.5,351 C726,356.5 722.1,361.3 717.2,363.4 C715.9,364.3 714.5,365 712.9,365.4 C696.4,369 679.3,370.5 662.8,367.4 C662.8,380.5 661.5,393.6 659.5,406.4 C656.5,426.1 651.3,445.6 642.6,463.5 C634.9,479.2 623.2,494.5 605.9,500 C597.3,502.7 587.8,502.3 579.3,499.6 C570.4,496.7 561.3,492 555.2,484.6 C552.1,480.8 549.5,476.7 547.6,472.3 C538,483.9 527.1,494.8 513.1,500.6 C503.6,504.5 491.2,504.6 482.5,498.6 C474.5,493 469.9,485.1 467.5,476.2 C458.5,486.2 448.4,495.4 435.9,500.6 C426.4,504.5 414,504.6 405.3,498.6 C394.5,491.1 389.9,479.4 388.6,466.8 C380.7,475.1 372.2,482.7 362.7,489.2 C354.2,495 344.4,500.1 334.2,502.2 C321.8,504.8 310,503.7 298.3,498.7 C280.8,491.1 268.8,474.9 266.2,456.1 C263.5,436.9 266.9,417.6 273,399.3 C274.9,393.8 276.9,388.3 279.2,383 C266.7,385.6 254.2,388.2 241.7,390.8 C241.1,393.1 240.4,395.4 239.8,397.8 C235.3,415 231.1,432.3 227.5,449.7 C225.6,458.7 223.9,467.8 222.3,476.9 C221.5,481.7 220.7,486.4 220,491.2 C219.7,493.4 219.3,495.6 219,497.8 C218.9,498.6 218.8,499.4 218.7,500.2 C218.6,500.8 218.5,501.7 218.5,501.9 C218,505.7 217.3,508.7 214.5,511.5 C212,514 208.5,515.5 204.9,515.5 C198.2,515.5 190.4,509.3 191.3,501.9 C195.9,466.5 203,431.6 211.9,397 C191.7,401.2 171.6,405.4 151.4,409.6 C151.1,410.8 150.8,411.9 150.5,413.1 C147.2,426.7 144.2,440.4 141.6,454.2 C140.4,460.8 139.2,467.3 138.2,473.9 C137.9,475.7 137.7,477.5 137.4,479.3 C137.3,479.7 137.3,480.1 137.2,480.5 C137.2,480.7 137.2,480.8 137.1,480.9 C136.7,483.9 136.4,486.8 136.1,489.8 C135.3,497.2 130.5,503.4 122.5,503.4 C115.7,503.4 108.1,497.2 108.9,489.8 C109.1,487.6 109.4,485.4 109.7,483.2 C112.5,460.5 116.7,438 121.8,415.7 C121.3,415.8 120.8,415.9 120.4,416 C104,419.4 87.6,422.8 71.3,426.2 C74.1,443 77.4,459.6 82.5,475.9 C84.7,483 87.2,490.1 89.9,497.1 C90.7,499 91.4,501 92.2,502.9 C92.4,503.4 92.6,504 92.9,504.5 C93,504.8 93.2,505.2 93.3,505.4 C94.7,508.7 96.2,511.9 97.7,515.1 C104,528.5 111.2,541.4 119.2,553.8 C123.2,560 127.4,566 131.8,571.9 C132.5,572.8 133.2,573.8 133.9,574.7 C133.9,574.7 133.9,574.7 133.9,574.8 C135,576.2 136.1,577.6 137.2,578.9 C139.4,581.6 141.7,584.3 144,587 C153.6,598.1 163.9,608.6 174.8,618.3 C180.1,623 185.5,627.6 191.1,631.9 C191.6,632.3 192.2,632.7 192.4,632.9 C193.1,633.4 193.8,634 194.5,634.5 C195.9,635.6 197.3,636.6 198.8,637.6 C201.7,639.7 204.6,641.7 207.5,643.6 C219.8,651.8 232.5,659.3 245.8,665.8 C249.3,667.5 252.7,669.1 256.3,670.7 C257.9,671.4 259.6,672.2 261.2,672.9 C261.3,672.9 261.4,673 261.5,673 C262.3,673.3 263,673.6 263.8,673.9 C270.7,676.7 277.7,679.3 284.8,681.6 C299.2,686.3 313.9,690.1 328.7,692.8 C332.6,693.5 336.5,694.2 340.5,694.7 C340.9,694.8 341.8,694.9 342.2,694.9 C342.6,694.9 342.9,695 343.3,695 C345.1,695.2 347,695.4 348.8,695.6 C356.5,696.4 364.3,697 372.1,697.3 C387.6,697.8 403.2,697.4 418.7,695.8 C420.8,695.6 423,695.3 425.1,695.1 C425.7,695 426.4,694.9 427,694.9 C427.3,694.9 427.7,694.8 427.8,694.8 C431.4,694.3 435,693.7 438.6,693.1 C446,691.8 453.4,690.2 460.7,688.4 C475.1,684.8 489.3,680.3 503.1,674.7 C504.2,674.3 505.3,673.8 506.4,673.4 C506.6,673.3 506.9,673.2 507.2,673.1 C508.5,672.5 509.9,671.9 511.2,671.3 C514.4,669.9 517.6,668.4 520.8,666.9 C527.4,663.7 533.9,660.3 540.2,656.7 C552.8,649.5 565,641.5 576.6,632.7 C576.9,632.5 577.2,632.2 577.6,632 C578.2,631.5 578.8,631.1 579.4,630.6 C580.8,629.5 582.1,628.4 583.5,627.3 C586.2,625.1 588.9,622.9 591.5,620.6 C597,615.8 602.3,610.9 607.4,605.8 C612.5,600.7 617.5,595.4 622.3,590 C624.8,587.2 627.2,584.3 629.6,581.4 C630.7,580.1 631.8,578.7 632.9,577.3 C633.3,576.8 634.8,574.8 635.3,574.2 C643.8,562.9 651.7,551.2 658.7,538.9 C662.3,532.6 665.8,526.1 669,519.5 C670.7,516.1 672.3,512.6 673.9,509.1 C674.6,507.5 675.3,505.9 676,504.3 L676,504.2 C676.3,503.4 676.7,502.6 677,501.7 C682.6,487.9 687.2,473.8 690.9,459.4 C692.7,452.1 694.4,444.8 695.7,437.4 C696.4,433.5 697,429.6 697.6,425.7 C697.7,425.1 697.8,424.5 697.9,423.9 C697.9,423.5 698,423.2 698,423 C698.2,421.2 698.4,419.4 698.6,417.5 C699.4,410.1 704.2,403.9 712.2,403.9 C719,403.9 726.6,410.1 725.8,417.5 C721.1,453.8 712,488.4 697.4,521.4 L697.4,521.4 L697.4,521.4 Z M549.9,593.5 L477.1,593.5 C469.3,593.5 469.3,581.4 477.1,581.4 L549.9,581.4 C557.6,581.4 557.6,593.5 549.9,593.5 L549.9,593.5 L549.9,593.5 Z M434.2,591.1 C429.1,583.6 424.4,576.2 424.4,568.3 C424.4,560.3 428.3,551.4 438.4,551.2 C450.5,550.9 453.1,560.9 453.4,568.9 C453.4,569.9 452.7,570.7 451.8,570.8 L444.9,571.5 C443.9,571.6 443,570.8 442.9,569.8 C442.7,565.5 441.8,561.2 438.7,561.2 C435.9,561.3 435,564.3 435,568.5 C435,573.5 439.3,579.1 443.5,585.1 C448.5,592.6 453.5,599.8 453.5,607.7 C453.5,617.5 450.3,626.1 438.6,626.1 C425.5,626.1 423.2,616.7 423,606.5 C423,605.6 423.7,604.7 424.6,604.7 L431.5,604 C432.5,603.9 433.4,604.7 433.5,605.8 C433.6,611.2 434.5,616.3 438.5,616.3 C441.7,616.3 442.9,612.8 442.9,608.2 C442.9,603.1 438.3,597.3 434.2,591.1 L434.2,591.1 L434.2,591.1 Z M411.2,587.8 C413.4,589.7 417,594.5 417,604.5 C417,615.2 413.2,624.7 400.4,625.2 L389,625.2 C388,625.2 387.2,624.4 387.2,623.4 L387.2,553.9 C387.2,552.9 388,552.1 389,552.1 L396.6,552.1 C409.4,552.1 416.2,557 416.2,571.5 C416.2,577.5 415,581.3 411.1,585.2 C410.4,585.9 410.4,587.1 411.2,587.8 L411.2,587.8 L411.2,587.8 Z M379.4,625.1 L372.6,625.1 C371.7,625.1 370.9,624.4 370.8,623.5 L369.2,611.7 C369.1,610.8 368.3,610.1 367.4,610.1 L360.2,610.1 C359.3,610.1 358.5,610.8 358.4,611.7 L356.8,623.5 C356.7,624.4 355.9,625.1 355,625.1 L348.2,625.1 C347.1,625.1 346.2,624.1 346.4,623 L356.9,553.5 C357,552.6 357.8,552 358.7,552 L368.7,552 C369.6,552 370.4,552.7 370.5,553.5 L381,623 C381.4,624.2 380.5,625.1 379.4,625.1 L379.4,625.1 L379.4,625.1 Z M328.2,615.2 L338.8,615.2 C339.8,615.2 340.6,616 340.6,617 L340.6,623.3 C340.6,624.3 339.8,625.1 338.8,625.1 L317.5,625.1 C316.5,625.1 315.7,624.3 315.7,623.3 L315.7,553.8 C315.7,552.8 316.5,552 317.5,552 L324.6,552 C325.6,552 326.4,552.8 326.4,553.8 L326.4,613.4 C326.4,614.4 327.2,615.2 328.2,615.2 L328.2,615.2 L328.2,615.2 Z M291.6,593.5 L218.8,593.5 C211,593.5 211,581.4 218.8,581.4 L291.6,581.4 C299.4,581.4 299.4,593.5 291.6,593.5 L291.6,593.5 L291.6,593.5 Z" id="hellolabs-logo" fill="#FFFFFF" sketch:type="MSShapeGroup"></path>
    </g>
</svg>